<svg width="20" height="21" viewBox="0 0 20 21" fill="none" xmlns="http://www.w3.org/2000/svg">
<path d="M10.258 20.9665L8.79261 19.4689L10.258 17.9713L11.7235 19.4689L10.258 20.9665ZM6.88755 19.4689L5.86174 18.4206L8.74376 15.4753L9.76957 16.5236L6.88755 19.4689ZM13.1889 17.9713L11.7235 16.4737L13.1889 14.9761L14.6544 16.4737L13.1889 17.9713ZM4.39631 17.9713L2.93087 16.4737L4.39631 14.9761L5.86174 16.4737L4.39631 17.9713ZM5.37326 13.9777C3.89154 13.9777 2.62541 13.4409 1.57485 12.3672C0.524301 11.2936 -0.000650699 10 6.05302e-07 8.48644C6.05302e-07 7.10531 0.447772 5.89891 1.34332 4.86722C2.23886 3.83554 3.34608 3.22818 4.66497 3.04514C5.18601 2.09665 5.89854 1.35184 6.80255 0.810706C7.70656 0.269571 8.69557 -0.000664377 9.76957 1.22654e-06C11.235 1.22654e-06 12.5093 0.47857 13.5924 1.43571C14.6755 2.39284 15.3307 3.5866 15.558 5.01699C16.6815 5.11683 17.6259 5.59107 18.3912 6.43971C19.1565 7.28836 19.5391 8.3034 19.5391 9.48485C19.5391 10.7329 19.1119 11.7938 18.2574 12.6678C17.4029 13.5417 16.3647 13.9783 15.1428 13.9777H5.37326Z" fill="white"/>
</svg>
